<svg width="824" height="387" viewBox="0 0 824 387" fill="none" xmlns="http://www.w3.org/2000/svg">
<path d="M35.5 19L20.5 1L13 28L9.5 32.5L1 51.5V87V132.5L9.5 187L17 245L28 287L35.5 344L49.5 356.5L73 360H84.5L101.5 363.5L115.5 360L140.5 363.5L155.5 356.5H166.5L187.5 363.5L208 360H232.5L262.5 363.5L283 369L301.5 374.5L348.5 379H382.5L406 385.5H437H467.5H496.5L520.5 374.5H540.5H580H601L621.5 369H636.5H663.5L681.5 374.5H700L724.5 379L740.5 385.5H756.5L760.5 374.5L780 360L799 351L816.5 331.5L823 316.5L816.5 294.5L807.5 273L803.5 247L795.5 227.5V206.5V177V161.5V142.5C795.5 140 791.5 129 791.5 127V117.5V98V86.5L795.5 72L789 60.5V45L784 32.5C782.833 29.5 778.9 24.4 772.5 28C766.1 31.6 769.833 35.1667 772.5 36.5H760.5H752.5L731 28H724.5L709 23.5H681.5C671.5 23.5 672 28 663.5 28H647.5C643.5 28 633.833 33.6667 629.5 36.5L611 51.5L589 45H560.5H545L529 51.5L515 58.5H496.5C490.9 58.5 483.167 61.8333 480 63.5H459C455.5 65.6667 448 70 446 70C444 70 439.167 74.3333 437 76.5L421 80.5L406 76.5L388.5 80.5H367L348.5 87H329C324.333 85.3333 314.2 81.7 311 80.5C307 79 300 78 295.5 76.5C291.9 75.3 282.333 71.6667 278 70C274.667 68.3333 266.9 64.7 262.5 63.5C257 62 249.5 61 243.5 58.5C237.5 56 226 51.5 217 45C208 38.5 199 45 195 45C191.8 45 188.667 49.3333 187.5 51.5C183.5 50.1667 174.4 47 170 45C165.6 43 151.833 38.5 145.5 36.5L130 32.5L115.5 28C112.667 25 105.9 19 101.5 19H84.5H67.5H57H49.5H35.5Z" fill="#FCFCFF" stroke="#FAF9FE" stroke-width="2" stroke-linecap="round" stroke-linejoin="round"/>
<path d="M219.5 47L216 359" stroke="#E3E2E7"/>
<path d="M254.5 63.5L250.5 362.5" stroke="#DDDDDF"/>
<path d="M288 74.5V367.5" stroke="#DDDDDF"/>
<path d="M321 86V377" stroke="#DDDDDF"/>
<path d="M355 86.5V378" stroke="#DDDDDF"/>
<path d="M388 81V378" stroke="#DDDDDF"/>
<path d="M421 80L424 385" stroke="#DDDDDF"/>
<path d="M456.5 64.5V384" stroke="#DDDDDF"/>
<path d="M492 58.5V384.5" stroke="#DDDDDF"/>
<path d="M525.5 54V373" stroke="#DDDDDF"/>
<path d="M557 46.5L560 375" stroke="#DDDDDF"/>
<path d="M592.5 47.5V375.5" stroke="#DDDDDF"/>
<path d="M626.5 43L630.5 367.5" stroke="#DDDDDF"/>
<path d="M658.5 29L663.5 369.5" stroke="#DDDDDF"/>
<path d="M694 25L698.5 373.5" stroke="#DDDDDF"/>
<path d="M726.5 29.5L733 383.5" stroke="#DDDDDF"/>
<path d="M762 35.5L768.5 367" stroke="#DDDDDF"/>
<path d="M801 244L803.5 344.5" stroke="#DDDDDF"/>
<path d="M22.5 33C24.1 33 88.8333 33 121 33" stroke="#DDDDDF"/>
<path d="M7 64H253" stroke="#DDDDDF"/>
<path d="M19.5 46.5L13.5 206" stroke="#DDDDDF"/>
<path d="M6.5 95.5L789 91.5" stroke="#DDDDDF"/>
<path d="M502 61.5L787 55.5" stroke="#DDDDDF"/>
<path d="M4 129L789 121" stroke="#DDDDDF"/>
<path d="M794.5 154L9.5 163.5" stroke="#DDDDDF"/>
<path d="M11 194.5L794.5 188.5" stroke="#DDDDDF"/>
<path d="M790 222L17.5 227.5" stroke="#DDDDDF"/>
<path d="M20.5 262.5L801 256.5" stroke="#DDDDDF"/>
<path d="M810 287.5L32.5 297" stroke="#DDDDDF"/>
<path d="M36.5 331.5L817.5 325.5" stroke="#DDDDDF"/>
<path d="M779.5 358.5C772.3 359.3 442.5 362.833 278.5 364.5" stroke="#DDDDDF"/>
<path d="M278.5 364.5H274.5" stroke="black"/>
<path d="M53.5 20L47.5 351.5" stroke="#E0DFE4"/>
<path d="M88 22L79.5 358.5" stroke="#E0DFE4"/>
<path d="M119.5 31L114 358" stroke="#E0DFE4"/>
<path d="M153 39L147 361" stroke="#E0DFE4"/>
<path d="M187 53L182.5 358.5" stroke="#E0DFE4"/>
</svg>

