<svg width="139" height="117" viewBox="0 0 139 117" fill="none" xmlns="http://www.w3.org/2000/svg">
<path d="M40.2727 23.9469C36.5804 28.7931 37.7727 36.3508 38.8304 39.5238L50.9459 45.8701L59.0228 57.697L69.6959 64.9086L83.2536 53.947L86.7151 47.0239L91.042 43.2739L97.6766 38.947H101.715C101.715 36.9278 101.657 32.3124 101.427 30.0047C101.138 27.1201 98.542 23.9469 96.2343 21.9278C93.9266 19.9087 89.5997 20.197 85.5613 15.8701C81.5228 11.5432 84.4074 14.1393 80.9459 7.79311C78.1766 2.71619 71.1382 1.83157 67.9651 2.02388C64.4074 3.46619 57.3497 7.27388 57.5805 10.9662C57.8113 14.6585 53.2536 17.3123 50.9459 18.1777C48.9266 18.0815 43.965 19.1008 40.2727 23.9469Z" fill="#E2CCA5" stroke="#1A2B35" stroke-width="3"/>
<path d="M54.8949 45.2691L80.5875 19.2885L81.6152 16.4306C80.6732 14.4388 79.2332 9.95492 78 8.5C76.4584 6.68135 72.8083 4.88452 69.2114 4.88452C66.1283 4.88453 60.9388 9.04492 60.5 10C60.2259 10.5966 58.0638 17.3832 55.9227 20.0679C55.152 22.1464 53.6103 22.666 52.3256 26.8229C51.1478 30.6337 51.6405 36.3491 52.3257 39.2936L54.8949 45.2691Z" fill="#E49D47" stroke="#E49D47" stroke-width="3"/>
<path d="M82 16C80.8738 16 63.6031 35.0939 54.5 44.5762L59.0046 56.7678L69.9846 63.1538C74.4892 59.3803 84.0052 50.7881 86.0323 46.6081C88.8477 46.0276 90 30.225 90 25C90 21.5336 86.8329 20.8547 84.5 19C83.3165 18.059 82.2119 16 82 16Z" fill="#BD6631" stroke="#BB6631" stroke-width="3"/>
<path d="M59.4041 25.3655C60.7888 21.4424 67.0964 15.8463 70.0772 13.5386L74.404 17.577C75.0771 17.9617 77.0002 19.5386 79.3078 22.7693C82.1925 26.8078 82.2534 27.5226 82.7694 31.1347C83.3463 35.1732 81.6155 38.3463 80.7502 39.7886C80.0279 40.9922 76.2309 46.8078 73.5386 49.3078L70.0772 55.9424C70.0772 55.2693 67.9232 52.5385 67 50C65.846 46.8269 62.0003 43.827 59.4041 39.7886C56.808 35.7501 57.6734 30.2693 59.4041 25.3655Z" stroke="#1A2B35" stroke-width="3"/>
<path d="M66.0386 26.8077C66.9616 24.5 68.8272 22.4808 70.3657 21.3269C72.6733 22.7692 75.2695 28.25 75.558 29.4038C75.9334 30.9057 75.8464 36.1154 75.2695 38.2307L70.3657 44.9808L69.5 42C68.9231 40.75 69.0388 38.6346 67.1927 36.3269C64.885 33.4423 64.8847 29.6923 66.0386 26.8077Z" fill="#EEEFEE" stroke="#1A2B35" stroke-width="3"/>
<path d="M98.5 29C97.0577 24.6731 90.6482 22 90.1731 22L89.5114 30.6738L87 43.3462L93.3123 40.4881L98.5386 39.0159C98.4043 37.7682 98.9568 36.6303 99 35.5C99.0588 33.963 99.0887 30.7662 98.5 29Z" fill="#E6A44E" stroke="#E6A44E" stroke-width="3"/>
<path d="M13.0645 49.8846L13.9298 47.5769L15.0837 46.4231L17.3914 46.7116L18.2568 48.1539L17.9683 49.8846L17.6798 51.9039V57.0962C17.776 57.5769 18.026 58.6539 18.2568 59.1154C18.4875 59.5769 18.5452 60.4616 18.5452 60.8462L17.6798 62L15.9491 62.8654L13.9298 61.7116L13.0645 59.1154V49.8846Z" fill="#2E0139" stroke="#2E0139" stroke-width="3"/>
<path d="M126.43 51.5546L125.337 49.2874L123.879 48.1538L120.964 48.4372L119.871 49.8542L120.235 51.5546L120.6 53.5384V58.6396C120.478 59.112 120.162 60.17 119.871 60.6234C119.579 61.0769 119.507 61.946 119.507 62.3239L120.6 63.4575L122.786 64.3077L125.337 63.1741L126.43 60.6234V51.5546Z" fill="#2E0139" stroke="#2E0139" stroke-width="3"/>
<path d="M21.4303 19.3077L18.8339 16.423L16.2377 18.7307L13.6416 23.3461L9.31464 33.7307L6.71849 47.2884V54.7884L7.58387 61.423L9.02618 67.4807L10.4685 73.25C12.3916 76.7115 16.3531 83.8077 16.8146 84.5C17.2762 85.1923 18.7377 85.3653 19.1223 85.3653L22.8723 83.0577C22.8723 82.8653 23.2185 82.5384 24.6031 82.7692C26.3339 83.0577 26.3339 83.923 26.6223 84.5C26.8531 84.9615 26.3339 86.2307 26.0454 86.8077L19.9877 89.9807C19.0262 90.6538 16.5262 90.9038 13.0646 86.5192C8.73772 81.0384 7.87237 77.5769 6.1416 73.25C4.75699 69.7884 2.96867 61.0384 2.39182 57.0961C1.23776 51.9038 2.91105 39.673 3.83412 35.75C4.98797 30.8461 9.02643 22.1923 10.7572 18.7307C12.1418 15.9615 15.9495 12.1923 17.6803 10.6538H19.988L24.3149 16.1346C24.3149 16.7115 24.1995 18.0384 23.738 18.7307C23.2764 19.423 22.2954 19.8846 21.4303 19.3077Z" fill="#2E0139" stroke="#2E0139" stroke-width="3"/>
<path d="M117.284 19.2979L119.893 16.4165L122.503 18.7216L125.113 23.3318L129.462 33.7047L132.072 47.247V54.7385L131.202 61.3657L129.752 67.4165L128.302 73.1792C126.369 76.6368 122.387 83.725 121.923 84.4165C121.459 85.108 119.99 85.2809 119.603 85.2809L115.834 82.9758C115.834 82.7837 115.486 82.4572 114.094 82.6877C112.355 82.9758 112.355 83.8402 112.065 84.4165C111.833 84.8775 112.355 86.1453 112.644 86.7216L118.734 89.8911C119.7 90.5634 122.213 90.8131 125.692 86.4335C130.042 80.9589 130.912 77.5013 132.651 73.1792C134.043 69.7216 135.841 60.9815 136.421 57.0436C137.581 51.8572 135.899 39.6402 134.971 35.7216C133.811 30.8233 129.752 22.1792 128.012 18.7216C126.62 15.9555 122.793 12.1905 121.053 10.6538H118.733L114.384 16.1284C114.384 16.7047 114.5 18.0301 114.964 18.7216C115.428 19.4131 116.414 19.8741 117.284 19.2979Z" fill="#2E0139" stroke="#2E0139" stroke-width="3"/>
<path d="M26.6226 41.2307H38.161L39.8918 47.5769L42.7764 52.7692L46.8149 56.5192L52.0072 59.4038L57.7764 61.1346L63.2572 62.8653L69.6033 67.7692L75.661 62.2884L85.7572 59.4038L90.9495 56.5192L95.2764 53.6346L100.18 47.5769L101.623 41.2307H113.161L100.18 80.7499C99.4879 83.5192 95.8533 85.9422 91.5264 84.7884L71.3341 77.2884L69.6033 76.9999L65.8533 78.1538C59.5072 79.8846 51.4303 83.6346 47.1033 84.7884C44.0705 85.5972 42.5841 84.4038 42.1995 83.6346L26.6226 41.2307Z" fill="#E2DBCB"/>
<path d="M69.6033 67.7692L75.661 62.2884L85.7572 59.4038L90.9495 56.5192L95.2764 53.6346L100.18 47.5769L101.623 41.2307H113.161L100.18 80.7499C99.4879 83.5192 95.8533 85.9423 91.5264 84.7884L71.3341 77.2884L69.6033 76.9999M69.6033 67.7692L63.2572 62.8653L57.7764 61.1346L52.0072 59.4038L46.8149 56.5192L42.7764 52.7692L39.8918 47.5769L38.161 41.2307H26.6226L42.1995 83.6346C42.5841 84.4038 44.0705 85.5972 47.1033 84.7884C51.4303 83.6346 59.5072 79.8846 65.8533 78.1538L69.6033 76.9999M69.6033 67.7692V71.5192V76.9999" stroke="#203543" stroke-width="3"/>
<path d="M100.18 47.2885L101.911 38.9231H97.0069L92.3915 42.0962L86.3338 47.2885L81.7184 55.0769L75.9492 59.1154L76.5261 62.2885L85.18 59.1154L94.9877 53.9231L100.18 47.2885Z" fill="#40775E" stroke="#1A2B35" stroke-width="3"/>
<path d="M40.4686 38.9231L38.7378 40.9423C40.1801 44.3077 43.1801 51.0962 43.6416 51.3269C44.1032 51.5577 47.1032 53.7308 48.5455 54.7885L57.4878 58.8269L69.8916 65.1731L69.0263 64.0192C65.3724 61.3269 57.9493 55.8846 57.4878 55.6539C57.0263 55.4231 53.8269 48.7692 52 45.5L40.4686 38.9231Z" fill="#40775E"/>
<path d="M69.8916 65.1731L69.0263 64.0192C65.3724 61.3269 57.9493 55.8846 57.4878 55.6539C57.0263 55.4231 53.8269 48.7692 52 45.5L40.4686 38.9231L38.7378 40.9423C40.1801 44.3077 43.1801 51.0962 43.6416 51.3269C44.1032 51.5577 47.1032 53.7308 48.5455 54.7885L57.4878 58.8269L69.8916 65.1731ZM69.8916 65.1731L75.084 60.2692L82.007 54.7885L84.3147 51.3269L86.334 47.2885L89.507 44.1154L93.834 40.9423L97.2955 38.9231H101.622" stroke="#203642" stroke-width="3"/>
<path d="M69.8916 65.1731L69.0263 64.0192C65.3724 61.3269 57.9493 55.8846 57.4878 55.6539C57.0263 55.4231 53.8269 48.7692 52 45.5L40.4686 38.9231L38.7378 40.9423C40.1801 44.3077 43.1801 51.0962 43.6416 51.3269C44.1032 51.5577 47.1032 53.7308 48.5455 54.7885L57.4878 58.8269L69.8916 65.1731ZM69.8916 65.1731L75.084 60.2692L82.007 54.7885L84.3147 51.3269L86.334 47.2885L89.507 44.1154L93.834 40.9423L97.2955 38.9231H101.622" stroke="black" stroke-opacity="0.2" stroke-width="3"/>
<path d="M54.315 80.173L45.6611 57.9614L47.6804 59.1153L54.9902 62.2307L58.3534 63.1537L62.3919 64.3076L67.8727 68.6345V75.846L66.4304 76.1345L64.1227 76.9999L54.315 80.173Z" fill="#C6C1B1"/>
<path d="M83.7225 79.8845L91.8145 57.9614L89.9263 59.1003L83.4491 61.7114L79.9875 62.8653L76.8145 63.7307L71.0452 68.4959V75.6138L72.3939 75.8985L74.5517 76.7526L83.7225 79.8845Z" fill="#C6C1B1"/>
<path d="M25.416 111.24C24.2853 111.24 23.2613 110.995 22.344 110.504C21.4373 110.013 20.7173 109.331 20.184 108.456C19.6613 107.571 19.4 106.557 19.4 105.416C19.4 104.275 19.6613 103.261 20.184 102.376C20.7173 101.491 21.4373 100.803 22.344 100.312C23.2613 99.8213 24.2853 99.576 25.416 99.576C26.536 99.576 27.5493 99.8213 28.456 100.312C29.3733 100.803 30.0933 101.491 30.616 102.376C31.1387 103.261 31.4 104.275 31.4 105.416C31.4 106.557 31.1387 107.571 30.616 108.456C30.0933 109.331 29.3733 110.013 28.456 110.504C27.5493 110.995 26.536 111.24 25.416 111.24ZM25.416 108.584C25.9813 108.584 26.4987 108.456 26.968 108.2C27.4373 107.944 27.8107 107.576 28.088 107.096C28.3653 106.616 28.504 106.056 28.504 105.416C28.504 104.776 28.3653 104.221 28.088 103.752C27.8213 103.272 27.4533 102.904 26.984 102.648C26.5147 102.381 25.992 102.248 25.416 102.248C24.8293 102.248 24.3013 102.381 23.832 102.648C23.3627 102.904 22.9893 103.272 22.712 103.752C22.4453 104.221 22.312 104.776 22.312 105.416C22.312 106.056 22.4453 106.616 22.712 107.096C22.9893 107.576 23.3627 107.944 23.832 108.2C24.312 108.456 24.84 108.584 25.416 108.584ZM32.5169 103.32H35.2369V104.088C35.9515 103.416 36.8582 103.08 37.9569 103.08C38.7569 103.08 39.4662 103.251 40.0849 103.592C40.7035 103.923 41.1835 104.397 41.5249 105.016C41.8662 105.624 42.0369 106.333 42.0369 107.144C42.0369 107.944 41.8662 108.659 41.5249 109.288C41.1835 109.907 40.7035 110.387 40.0849 110.728C39.4769 111.069 38.7675 111.24 37.9569 111.24C37.4449 111.24 36.9542 111.16 36.4849 111C36.0262 110.851 35.6422 110.643 35.3329 110.376V114.504H32.5169V103.32ZM37.2209 109.048C37.7969 109.048 38.2609 108.877 38.6129 108.536C38.9649 108.195 39.1409 107.731 39.1409 107.144C39.1409 106.557 38.9649 106.099 38.6129 105.768C38.2609 105.427 37.7969 105.256 37.2209 105.256C36.7942 105.256 36.4102 105.368 36.0689 105.592C35.7275 105.805 35.4822 106.099 35.3329 106.472V107.832C35.4822 108.205 35.7275 108.504 36.0689 108.728C36.4102 108.941 36.7942 109.048 37.2209 109.048ZM47.6695 111.24C46.1655 111.24 44.9815 110.888 44.1175 110.184C43.2642 109.48 42.8375 108.483 42.8375 107.192C42.8375 105.923 43.2162 104.92 43.9735 104.184C44.7415 103.448 45.8455 103.08 47.2855 103.08C48.2028 103.08 48.9868 103.256 49.6375 103.608C50.2988 103.949 50.7948 104.424 51.1255 105.032C51.4668 105.629 51.6375 106.307 51.6375 107.064V108.104H45.5095C45.6162 108.531 45.8828 108.84 46.3095 109.032C46.7362 109.224 47.3175 109.32 48.0535 109.32C48.5548 109.32 49.0668 109.277 49.5895 109.192C50.1228 109.107 50.5815 108.989 50.9655 108.84V110.696C50.5708 110.856 50.0748 110.984 49.4775 111.08C48.8908 111.187 48.2882 111.24 47.6695 111.24ZM48.9815 106.344C48.9388 105.928 48.7682 105.603 48.4695 105.368C48.1708 105.133 47.7602 105.016 47.2375 105.016C46.7255 105.016 46.3202 105.139 46.0215 105.384C45.7228 105.619 45.5522 105.939 45.5095 106.344H48.9815ZM52.7513 103.32H55.4713V104.168C55.8019 103.805 56.2019 103.533 56.6713 103.352C57.1406 103.171 57.6313 103.08 58.1433 103.08C59.2206 103.08 60.0153 103.363 60.5273 103.928C61.0499 104.483 61.3113 105.24 61.3113 106.2V111H58.4953V106.568C58.4953 105.704 58.1006 105.272 57.3113 105.272C56.9486 105.272 56.6179 105.357 56.3193 105.528C56.0206 105.688 55.7699 105.939 55.5673 106.28V111H52.7513V103.32ZM66.9291 111.24C65.5211 111.24 64.4065 110.888 63.5851 110.184C62.7638 109.48 62.3531 108.477 62.3531 107.176C62.3531 105.875 62.7638 104.867 63.5851 104.152C64.4171 103.437 65.5371 103.08 66.9451 103.08C67.5745 103.08 68.1611 103.144 68.7051 103.272C69.2598 103.389 69.7185 103.56 70.0811 103.784V105.976C69.4305 105.507 68.5718 105.272 67.5051 105.272C66.8225 105.272 66.2731 105.432 65.8571 105.752C65.4518 106.061 65.2491 106.536 65.2491 107.176C65.2491 107.827 65.4518 108.307 65.8571 108.616C66.2625 108.915 66.8065 109.064 67.4891 109.064C68.5238 109.064 69.4198 108.819 70.1771 108.328V110.504C69.3665 110.995 68.2838 111.24 66.9291 111.24ZM74.116 111.24C73.156 111.24 72.3773 111.011 71.78 110.552C71.1933 110.083 70.9 109.432 70.9 108.6C70.9 107.736 71.1827 107.075 71.748 106.616C72.324 106.147 73.1453 105.912 74.212 105.912C74.628 105.912 75.044 105.96 75.46 106.056C75.876 106.141 76.2333 106.259 76.532 106.408V106.248C76.532 105.427 75.86 105.016 74.516 105.016C73.5773 105.016 72.7187 105.197 71.94 105.56V103.624C72.2813 103.464 72.7293 103.336 73.284 103.24C73.8387 103.133 74.4147 103.08 75.012 103.08C76.4413 103.08 77.5187 103.368 78.244 103.944C78.98 104.509 79.348 105.304 79.348 106.328V111H76.708V110.344C76.42 110.621 76.0573 110.84 75.62 111C75.1827 111.16 74.6813 111.24 74.116 111.24ZM74.948 109.512C75.2787 109.512 75.588 109.448 75.876 109.32C76.164 109.181 76.3827 109.005 76.532 108.792V108.12C76.0733 107.811 75.5507 107.656 74.964 107.656C74.5907 107.656 74.3027 107.736 74.1 107.896C73.8973 108.056 73.796 108.291 73.796 108.6C73.796 108.888 73.892 109.112 74.084 109.272C74.2867 109.432 74.5747 109.512 74.948 109.512ZM84.4644 111.24C83.6644 111.24 82.955 111.075 82.3364 110.744C81.7177 110.403 81.2377 109.928 80.8964 109.32C80.555 108.701 80.3844 107.987 80.3844 107.176C80.3844 106.376 80.555 105.667 80.8964 105.048C81.2377 104.419 81.7124 103.933 82.3204 103.592C82.939 103.251 83.6537 103.08 84.4644 103.08C84.9977 103.08 85.4884 103.155 85.9364 103.304C86.3844 103.453 86.7684 103.667 87.0884 103.944V99.176H89.9044V111H87.1844V110.232C86.4697 110.904 85.563 111.24 84.4644 111.24ZM85.2004 109.064C85.627 109.064 86.011 108.957 86.3524 108.744C86.6937 108.52 86.939 108.221 87.0884 107.848V106.488C86.939 106.115 86.6937 105.821 86.3524 105.608C86.011 105.384 85.627 105.272 85.2004 105.272C84.6244 105.272 84.1604 105.443 83.8084 105.784C83.4564 106.125 83.2804 106.589 83.2804 107.176C83.2804 107.763 83.4564 108.227 83.8084 108.568C84.1604 108.899 84.6244 109.064 85.2004 109.064ZM95.857 111.24C94.353 111.24 93.169 110.888 92.305 110.184C91.4517 109.48 91.025 108.483 91.025 107.192C91.025 105.923 91.4037 104.92 92.161 104.184C92.929 103.448 94.033 103.08 95.473 103.08C96.3903 103.08 97.1743 103.256 97.825 103.608C98.4863 103.949 98.9823 104.424 99.313 105.032C99.6543 105.629 99.825 106.307 99.825 107.064V108.104H93.697C93.8037 108.531 94.0703 108.84 94.497 109.032C94.9237 109.224 95.505 109.32 96.241 109.32C96.7423 109.32 97.2543 109.277 97.777 109.192C98.3103 109.107 98.769 108.989 99.153 108.84V110.696C98.7583 110.856 98.2623 110.984 97.665 111.08C97.0783 111.187 96.4757 111.24 95.857 111.24ZM97.169 106.344C97.1263 105.928 96.9557 105.603 96.657 105.368C96.3583 105.133 95.9477 105.016 95.425 105.016C94.913 105.016 94.5077 105.139 94.209 105.384C93.9103 105.619 93.7397 105.939 93.697 106.344H97.169ZM100.939 103.32H103.547V104.152C103.867 103.811 104.235 103.549 104.651 103.368C105.067 103.176 105.509 103.08 105.979 103.08C106.555 103.08 107.013 103.165 107.355 103.336C107.707 103.507 107.989 103.763 108.203 104.104C108.523 103.784 108.912 103.533 109.371 103.352C109.829 103.171 110.293 103.08 110.763 103.08C111.776 103.08 112.496 103.341 112.923 103.864C113.349 104.376 113.563 105.117 113.563 106.088V111H110.875V106.488C110.875 106.061 110.795 105.752 110.635 105.56C110.475 105.368 110.208 105.272 109.835 105.272C109.355 105.272 108.965 105.443 108.667 105.784C108.677 105.965 108.683 106.243 108.683 106.616V111H105.995V106.376C105.995 105.981 105.925 105.699 105.787 105.528C105.648 105.357 105.403 105.272 105.051 105.272C104.507 105.272 104.037 105.576 103.643 106.184V111H100.939V103.32ZM116.885 114.168C116.544 114.168 116.186 114.141 115.813 114.088C115.44 114.045 115.162 113.981 114.981 113.896V111.8C115.29 111.928 115.642 111.992 116.037 111.992C116.389 111.992 116.661 111.912 116.853 111.752C117.056 111.603 117.216 111.363 117.333 111.032L117.525 110.52L114.197 103.32H117.013L119.013 108.312L120.901 103.32H123.717L120.549 111.352C120.176 112.312 119.696 113.021 119.109 113.48C118.533 113.939 117.792 114.168 116.885 114.168Z" fill="black"/>
</svg>
