<svg width="534" height="536" viewBox="0 0 534 536" fill="none" xmlns="http://www.w3.org/2000/svg">
<path d="M136.971 494.095L6.92176 268L136.971 41.9052L397.029 41.9052L527.078 268L397.029 494.095L136.971 494.095Z" fill="#D9D9D9" stroke="#10162F" stroke-width="12"/>
<path d="M154 189.5L61 178L136 43.5H397.5L468 169L379.5 186L347 112.5H186L154 189.5Z" fill="#7882AD" stroke="#10162F" stroke-width="12"/>
<path d="M156 350L63 361.264L138 493H399.5L470 370.079L381.5 353.428L349 425.418L320 379.5H268.5H222L188 425.418L156 350Z" fill="#7882AD" stroke="#10162F" stroke-width="12"/>
<path d="M71.256 295.96C69.848 295.96 68.3547 295.811 66.776 295.512C65.24 295.256 64.088 294.915 63.32 294.488V284.504C63.96 284.803 64.7707 285.037 65.752 285.208C66.776 285.379 67.8 285.464 68.824 285.464C70.7013 285.464 72.024 285.08 72.792 284.312C73.56 283.501 73.944 282.179 73.944 280.344V250.264H85.272V281.624C85.272 286.019 84.0773 289.517 81.688 292.12C79.2987 294.68 75.8213 295.96 71.256 295.96ZM90.6925 250.264H122.437V259.8H102.021V268.184H116.933V277.08H102.021V285.464H122.437V295H90.6925V250.264ZM126.943 250.264H158.687V259.8H138.271V268.184H153.183V277.08H138.271V285.464H158.687V295H126.943V250.264ZM201.583 250.264H212.719L230.575 295H218.991L215.407 285.784H198.895L195.311 295H183.663L201.583 250.264ZM212.591 277.08L207.151 262.04L201.647 277.08H212.591ZM247.233 295.96C244.033 295.96 241.195 295.299 238.72 293.976C236.246 292.611 234.326 290.712 232.961 288.28C231.595 285.805 230.913 282.947 230.913 279.704C230.913 276.504 231.595 273.667 232.961 271.192C234.326 268.675 236.225 266.733 238.657 265.368C241.131 264.003 243.99 263.32 247.233 263.32C249.366 263.32 251.329 263.619 253.121 264.216C254.913 264.813 256.449 265.667 257.729 266.776V247.704H268.993V295H258.113V291.928C255.254 294.616 251.627 295.96 247.233 295.96ZM250.177 287.256C251.883 287.256 253.419 286.829 254.785 285.976C256.15 285.08 257.131 283.885 257.729 282.392V276.952C257.131 275.459 256.15 274.285 254.785 273.432C253.419 272.536 251.883 272.088 250.177 272.088C247.873 272.088 246.017 272.771 244.609 274.136C243.201 275.501 242.497 277.357 242.497 279.704C242.497 282.051 243.201 283.907 244.609 285.272C246.017 286.595 247.873 287.256 250.177 287.256ZM271.85 264.28H283.114L290.09 282.136L297.002 264.28H308.266L295.402 295H284.714L271.85 264.28ZM321.464 295.96C317.624 295.96 314.509 295.043 312.12 293.208C309.773 291.331 308.6 288.728 308.6 285.4C308.6 281.944 309.731 279.299 311.992 277.464C314.296 275.587 317.581 274.648 321.848 274.648C323.512 274.648 325.176 274.84 326.84 275.224C328.504 275.565 329.933 276.035 331.128 276.632V275.992C331.128 272.707 328.44 271.064 323.064 271.064C319.309 271.064 315.875 271.789 312.76 273.24V265.496C314.125 264.856 315.917 264.344 318.136 263.96C320.355 263.533 322.659 263.32 325.048 263.32C330.765 263.32 335.075 264.472 337.976 266.776C340.92 269.037 342.392 272.216 342.392 276.312V295H331.832V292.376C330.68 293.485 329.229 294.36 327.48 295C325.731 295.64 323.725 295.96 321.464 295.96ZM324.792 289.048C326.115 289.048 327.352 288.792 328.504 288.28C329.656 287.725 330.531 287.021 331.128 286.168V283.48C329.293 282.243 327.203 281.624 324.856 281.624C323.363 281.624 322.211 281.944 321.4 282.584C320.589 283.224 320.184 284.163 320.184 285.4C320.184 286.552 320.568 287.448 321.336 288.088C322.147 288.728 323.299 289.048 324.792 289.048ZM347.818 264.28H358.698V267.672C360.02 266.221 361.62 265.133 363.498 264.408C365.375 263.683 367.338 263.32 369.386 263.32C373.695 263.32 376.874 264.451 378.922 266.712C381.012 268.931 382.058 271.96 382.058 275.8V295H370.794V277.272C370.794 273.816 369.215 272.088 366.058 272.088C364.607 272.088 363.284 272.429 362.09 273.112C360.895 273.752 359.892 274.755 359.082 276.12V295H347.818V264.28ZM404.529 295.96C398.897 295.96 394.438 294.552 391.153 291.736C387.868 288.92 386.225 284.909 386.225 279.704C386.225 274.499 387.868 270.467 391.153 267.608C394.481 264.749 398.961 263.32 404.593 263.32C407.11 263.32 409.457 263.576 411.633 264.088C413.852 264.557 415.686 265.24 417.137 266.136V274.904C414.534 273.027 411.1 272.088 406.833 272.088C404.102 272.088 401.905 272.728 400.241 274.008C398.62 275.245 397.809 277.144 397.809 279.704C397.809 282.307 398.62 284.227 400.241 285.464C401.862 286.659 404.038 287.256 406.769 287.256C410.908 287.256 414.492 286.275 417.521 284.312V293.016C414.278 294.979 409.948 295.96 404.529 295.96ZM440.053 295.96C434.037 295.96 429.301 294.552 425.845 291.736C422.432 288.92 420.725 284.931 420.725 279.768C420.725 274.691 422.24 270.68 425.269 267.736C428.341 264.792 432.757 263.32 438.517 263.32C442.186 263.32 445.322 264.024 447.925 265.432C450.57 266.797 452.554 268.696 453.877 271.128C455.242 273.517 455.925 276.227 455.925 279.256V283.416H431.413C431.84 285.123 432.906 286.36 434.613 287.128C436.32 287.896 438.645 288.28 441.589 288.28C443.594 288.28 445.642 288.109 447.733 287.768C449.866 287.427 451.701 286.957 453.237 286.36V293.784C451.658 294.424 449.674 294.936 447.285 295.32C444.938 295.747 442.528 295.96 440.053 295.96ZM445.301 276.376C445.13 274.712 444.448 273.411 443.253 272.472C442.058 271.533 440.416 271.064 438.325 271.064C436.277 271.064 434.656 271.555 433.461 272.536C432.266 273.475 431.584 274.755 431.413 276.376H445.301Z" fill="black"/>
</svg>
