<svg width="534" height="536" viewBox="0 0 534 536" fill="none" xmlns="http://www.w3.org/2000/svg">
<path d="M136.971 494.095L6.92176 268L136.971 41.9052L397.029 41.9052L527.078 268L397.029 494.095L136.971 494.095Z" fill="#D9D9D9" stroke="#10162F" stroke-width="12"/>
<path d="M154 189.5L61 178L136 43.5H397.5L468 169L379.5 186L347 112.5H186L154 189.5Z" fill="#7882AD" stroke="#10162F" stroke-width="12"/>
<path d="M138 407.5L63 361.264L138 493H399.5L470 370.079L410 405.5L349 425.418H188L138 407.5Z" fill="#7882AD" stroke="#10162F" stroke-width="12"/>
<path d="M231.45 311.125C225.75 311.125 220.725 310.025 216.375 307.825C212.075 305.625 208.75 302.475 206.4 298.375C204.05 294.225 202.875 289.375 202.875 283.825C202.875 278.275 204.05 273.45 206.4 269.35C208.75 265.2 212.075 262.025 216.375 259.825C220.725 257.575 225.75 256.45 231.45 256.45C235.2 256.45 238.55 256.825 241.5 257.575C244.45 258.325 247.175 259.5 249.675 261.1V273.7C247.475 271.95 244.975 270.675 242.175 269.875C239.425 269.075 236.25 268.675 232.65 268.675C227.5 268.675 223.525 270.025 220.725 272.725C217.925 275.375 216.525 279.075 216.525 283.825C216.525 288.575 217.925 292.3 220.725 295C223.575 297.7 227.55 299.05 232.65 299.05C236.25 299.05 239.475 298.625 242.325 297.775C245.175 296.925 247.825 295.575 250.275 293.725V306.25C245.525 309.5 239.25 311.125 231.45 311.125ZM255.498 257.575H292.698V268.75H268.773V278.575H286.248V289H268.773V298.825H292.698V310H255.498V257.575ZM310.129 268.75H295.354V257.575H338.254V268.75H323.404V310H310.129V268.75Z" fill="black"/>
</svg>
