<svg width="594" height="536" viewBox="0 0 594 536" fill="none" xmlns="http://www.w3.org/2000/svg">
<path d="M136.971 494.095L6.92176 268L136.971 41.9052L397.029 41.9052L527.078 268L397.029 494.095L136.971 494.095Z" fill="#D9D9D9" stroke="#10162F" stroke-width="12"/>
<path d="M154 189.5L61 178L136 43.5H397.5L468 169L379.5 186L347 112.5H186L154 189.5Z" fill="#7882AD" stroke="#10162F" stroke-width="12"/>
<path d="M156 350L63 361.264L138 493H399.5L470 370.079L381.5 353.428L349 425.418H188L156 350Z" fill="#7882AD" stroke="#10162F" stroke-width="12"/>
<path d="M99.825 311.125C98.425 311.125 96.95 311 95.4 310.75C93.85 310.5 92.675 310.2 91.875 309.85V303.325C92.625 303.625 93.575 303.875 94.725 304.075C95.925 304.275 97.05 304.375 98.1 304.375C103.25 304.375 105.825 301.875 105.825 296.875V257.575H113.475V297.4C113.475 301.7 112.25 305.075 109.8 307.525C107.35 309.925 104.025 311.125 99.825 311.125ZM122.854 257.575H157.429V264.025H130.504V280.6H150.604V286.975H130.504V303.625H157.429V310H122.854V257.575ZM165.334 257.575H199.909V264.025H172.984V280.6H193.084V286.975H172.984V303.625H199.909V310H165.334V257.575ZM235.573 257.575H243.223L261.898 298.45L280.573 257.575H288.223V310H280.798V272.725L263.773 310H260.023L242.923 272.725V310H235.573V257.575ZM310.876 311.125C306.526 311.125 303.026 310.025 300.376 307.825C297.776 305.575 296.476 302.55 296.476 298.75C296.476 294.75 297.726 291.675 300.226 289.525C302.776 287.325 306.376 286.225 311.026 286.225C315.976 286.225 320.176 287.225 323.626 289.225V287.35C323.626 284.5 322.751 282.4 321.001 281.05C319.301 279.65 316.601 278.95 312.901 278.95C310.701 278.95 308.551 279.175 306.451 279.625C304.401 280.025 302.551 280.6 300.901 281.35V275.2C302.401 274.5 304.351 273.95 306.751 273.55C309.151 273.1 311.476 272.875 313.726 272.875C319.676 272.875 324.076 274.2 326.926 276.85C329.826 279.45 331.276 283.075 331.276 287.725V310H324.151V305.95C322.601 307.65 320.751 308.95 318.601 309.85C316.501 310.7 313.926 311.125 310.876 311.125ZM312.751 305.35C315.151 305.35 317.326 304.875 319.276 303.925C321.226 302.975 322.676 301.65 323.626 299.95V295.075C320.376 292.975 316.751 291.925 312.751 291.925C309.851 291.925 307.676 292.5 306.226 293.65C304.826 294.75 304.126 296.45 304.126 298.75C304.126 303.15 307.001 305.35 312.751 305.35ZM345.101 266.95C343.851 266.95 342.801 266.525 341.951 265.675C341.101 264.825 340.676 263.775 340.676 262.525C340.676 261.275 341.101 260.225 341.951 259.375C342.801 258.525 343.851 258.1 345.101 258.1C346.401 258.1 347.476 258.525 348.326 259.375C349.226 260.225 349.676 261.275 349.676 262.525C349.676 263.775 349.226 264.825 348.326 265.675C347.476 266.525 346.401 266.95 345.101 266.95ZM341.276 274H349.001V310H341.276V274ZM359.426 274H366.776V279.175C368.476 277.025 370.551 275.45 373.001 274.45C375.501 273.4 378.101 272.875 380.801 272.875C385.601 272.875 389.176 274.15 391.526 276.7C393.876 279.25 395.051 282.675 395.051 286.975V310H387.476V287.725C387.476 281.875 384.676 278.95 379.076 278.95C376.676 278.95 374.426 279.525 372.326 280.675C370.276 281.775 368.501 283.475 367.001 285.775V310H359.426V274ZM417.671 311.125C415.171 311.125 412.521 310.8 409.721 310.15C406.921 309.55 404.721 308.725 403.121 307.675V301.225C405.071 302.375 407.321 303.325 409.871 304.075C412.421 304.775 414.896 305.125 417.296 305.125C419.996 305.125 421.971 304.8 423.221 304.15C424.471 303.5 425.096 302.45 425.096 301C425.096 299.9 424.796 299.025 424.196 298.375C423.646 297.675 422.671 297.05 421.271 296.5C419.921 295.95 417.871 295.3 415.121 294.55C412.171 293.7 409.821 292.85 408.071 292C406.371 291.1 405.071 289.975 404.171 288.625C403.321 287.275 402.896 285.525 402.896 283.375C402.896 279.925 404.246 277.325 406.946 275.575C409.696 273.775 413.371 272.875 417.971 272.875C420.371 272.875 422.721 273.1 425.021 273.55C427.321 274 429.171 274.625 430.571 275.425V281.725C429.121 280.875 427.321 280.2 425.171 279.7C423.071 279.2 420.921 278.95 418.721 278.95C416.071 278.95 414.046 279.275 412.646 279.925C411.246 280.575 410.546 281.725 410.546 283.375C410.546 284.425 410.846 285.275 411.446 285.925C412.046 286.575 412.996 287.15 414.296 287.65C415.646 288.1 417.771 288.7 420.671 289.45C425.221 290.7 428.371 292.175 430.121 293.875C431.921 295.575 432.821 297.925 432.821 300.925C432.821 304.025 431.546 306.5 428.996 308.35C426.446 310.2 422.671 311.125 417.671 311.125Z" fill="black"/>
<path d="M136.971 494.095L6.92176 268L136.971 41.9052L397.029 41.9052L527.078 268L397.029 494.095L136.971 494.095Z" fill="#D9D9D9" stroke="#10162F" stroke-width="12"/>
<path d="M154 189.5L61 178L136 43.5H397.5L468 169L379.5 186L347 112.5H186L154 189.5Z" fill="#7882AD" stroke="#10162F" stroke-width="12"/>
<path d="M156 350L63 361.264L138 493H399.5L470 370.079L381.5 353.428L349 425.418H188L156 350Z" fill="#7882AD" stroke="#10162F" stroke-width="12"/>
<path d="M99.675 311.125C98.025 311.125 96.275 310.95 94.425 310.6C92.625 310.3 91.275 309.9 90.375 309.4V297.7C91.125 298.05 92.075 298.325 93.225 298.525C94.425 298.725 95.625 298.825 96.825 298.825C99.025 298.825 100.575 298.375 101.475 297.475C102.375 296.525 102.825 294.975 102.825 292.825V257.575H116.1V294.325C116.1 299.475 114.7 303.575 111.9 306.625C109.1 309.625 105.025 311.125 99.675 311.125ZM122.452 257.575H159.652V268.75H135.727V278.575H153.202V289H135.727V298.825H159.652V310H122.452V257.575ZM164.933 257.575H202.133V268.75H178.208V278.575H195.683V289H178.208V298.825H202.133V310H164.933V257.575ZM232.901 257.575H245.651L260.801 290.05L276.026 257.575H288.701V310H276.326V283.675L263.801 310H257.801L245.351 283.675V310H232.901V257.575ZM309.025 311.125C304.525 311.125 300.875 310.05 298.075 307.9C295.325 305.7 293.95 302.65 293.95 298.75C293.95 294.7 295.275 291.6 297.925 289.45C300.625 287.25 304.475 286.15 309.475 286.15C311.425 286.15 313.375 286.375 315.325 286.825C317.275 287.225 318.95 287.775 320.35 288.475V287.725C320.35 283.875 317.2 281.95 310.9 281.95C306.5 281.95 302.475 282.8 298.825 284.5V275.425C300.425 274.675 302.525 274.075 305.125 273.625C307.725 273.125 310.425 272.875 313.225 272.875C319.925 272.875 324.975 274.225 328.375 276.925C331.825 279.575 333.55 283.3 333.55 288.1V310H321.175V306.925C319.825 308.225 318.125 309.25 316.075 310C314.025 310.75 311.675 311.125 309.025 311.125ZM312.925 303.025C314.475 303.025 315.925 302.725 317.275 302.125C318.625 301.475 319.65 300.65 320.35 299.65V296.5C318.2 295.05 315.75 294.325 313 294.325C311.25 294.325 309.9 294.7 308.95 295.45C308 296.2 307.525 297.3 307.525 298.75C307.525 300.1 307.975 301.15 308.875 301.9C309.825 302.65 311.175 303.025 312.925 303.025ZM346.958 269.2C344.958 269.2 343.283 268.55 341.933 267.25C340.583 265.95 339.908 264.3 339.908 262.3C339.908 260.35 340.583 258.725 341.933 257.425C343.283 256.075 344.958 255.4 346.958 255.4C348.908 255.4 350.558 256.075 351.908 257.425C353.308 258.725 354.008 260.35 354.008 262.3C354.008 264.25 353.308 265.9 351.908 267.25C350.558 268.55 348.908 269.2 346.958 269.2ZM340.358 274H353.558V310H340.358V274ZM360.782 274H373.532V277.975C375.082 276.275 376.957 275 379.157 274.15C381.357 273.3 383.657 272.875 386.057 272.875C391.107 272.875 394.832 274.2 397.232 276.85C399.682 279.45 400.907 283 400.907 287.5V310H387.707V289.225C387.707 285.175 385.857 283.15 382.157 283.15C380.457 283.15 378.907 283.55 377.507 284.35C376.107 285.1 374.932 286.275 373.982 287.875V310H360.782V274ZM422.816 311.125C419.916 311.125 416.891 310.825 413.741 310.225C410.591 309.675 408.091 308.875 406.241 307.825V298.15C408.291 299.35 410.741 300.35 413.591 301.15C416.491 301.9 419.141 302.275 421.541 302.275C423.291 302.275 424.566 302.15 425.366 301.9C426.166 301.65 426.566 301.15 426.566 300.4C426.566 299.8 426.291 299.325 425.741 298.975C425.241 298.575 424.291 298.175 422.891 297.775C421.541 297.325 419.966 296.85 418.166 296.35C415.116 295.45 412.716 294.525 410.966 293.575C409.216 292.625 407.916 291.425 407.066 289.975C406.216 288.525 405.791 286.7 405.791 284.5C405.791 280.6 407.316 277.7 410.366 275.8C413.466 273.85 417.691 272.875 423.041 272.875C425.641 272.875 428.366 273.15 431.216 273.7C434.116 274.25 436.291 274.975 437.741 275.875V285.4C436.241 284.4 434.241 283.575 431.741 282.925C429.291 282.275 426.991 281.95 424.841 281.95C423.141 281.95 421.816 282.125 420.866 282.475C419.916 282.775 419.441 283.325 419.441 284.125C419.441 284.875 419.916 285.45 420.866 285.85C421.816 286.25 423.516 286.75 425.966 287.35C427.566 287.75 428.241 287.925 427.991 287.875C431.191 288.725 433.666 289.675 435.416 290.725C437.166 291.775 438.391 293.025 439.091 294.475C439.841 295.875 440.216 297.675 440.216 299.875C440.216 303.325 438.716 306.075 435.716 308.125C432.766 310.125 428.466 311.125 422.816 311.125Z" fill="black"/>
</svg>
