<svg width="534" height="536" viewBox="0 0 534 536" fill="none" xmlns="http://www.w3.org/2000/svg">
<path d="M136.971 494.095L6.92176 268L136.971 41.9052L397.029 41.9052L527.078 268L397.029 494.095L136.971 494.095Z" fill="#D9D9D9" stroke="#10162F" stroke-width="12"/>
<path d="M136 128.5L61 178L136 43.5H397.5L468 169L397.5 128.5L347 112.5H186L136 128.5Z" fill="#7882AD" stroke="#10162F" stroke-width="12"/>
<path d="M138 407.5L63 361.264L138 493H399.5L470 370.079L410 405.5L349 425.418H188L138 407.5Z" fill="#7882AD" stroke="#10162F" stroke-width="12"/>
<path d="M167.375 257.575H180.65V279.325L198.725 257.575H214.475L193.25 283.075L215.9 310H200.15L180.65 286.825V310H167.375V257.575ZM216.998 257.575H231.173L244.523 292.45L257.873 257.575H271.973L251.048 310H237.998L216.998 257.575ZM277.238 257.575H300.338C306.438 257.575 311.313 259.175 314.963 262.375C318.613 265.575 320.438 270.05 320.438 275.8C320.438 281.7 318.613 286.275 314.963 289.525C311.363 292.725 306.488 294.325 300.338 294.325H290.513V310H277.238V257.575ZM298.238 283.15C300.888 283.15 302.963 282.6 304.463 281.5C306.013 280.4 306.788 278.5 306.788 275.8C306.788 273.1 306.038 271.25 304.538 270.25C303.038 269.25 300.938 268.75 298.238 268.75H290.513V283.15H298.238ZM337.862 290.05L318.512 257.575H332.687L344.537 277.9L356.912 257.575H371.012L351.137 290.05V310H337.862V290.05Z" fill="black"/>
</svg>
