<svg width="534" height="536" viewBox="0 0 534 536" fill="none" xmlns="http://www.w3.org/2000/svg">
<path d="M136.971 494.095L6.92176 268L136.971 41.9052L397.029 41.9052L527.078 268L397.029 494.095L136.971 494.095Z" fill="#D9D9D9" stroke="#10162F" stroke-width="12"/>
<path d="M154 189.5L61 178L136 43.5H397.5L473.5 178L403.5 189.5H347H273H209.5H154Z" fill="#7882AD" stroke="#10162F" stroke-width="12"/>
<path d="M156 350L63 361.264L138 493H399.5L470 370.079L381.5 353.428L349 425.418H188L156 350Z" fill="#7882AD" stroke="#10162F" stroke-width="12"/>
<path d="M181.375 257.575H194.5L213.775 288.775V257.575H227.05V310H214L194.65 278.725V310H181.375V257.575ZM233.816 257.575H271.016V268.75H247.091V278.575H264.566V289H247.091V298.825H271.016V310H233.816V257.575ZM276.297 257.575H313.497V268.75H289.572V278.575H307.047V289H289.572V298.825H313.497V310H276.297V257.575ZM330.927 268.75H316.152V257.575H359.052V268.75H344.202V310H330.927V268.75Z" fill="black"/>
</svg>
